<svg width="896" height="941" viewBox="0 0 896 941" fill="none" xmlns="http://www.w3.org/2000/svg">
<rect x="9.5" y="9.5" width="877" height="922" rx="40.5" fill="#D4F1F4" stroke="#D4F1F4" stroke-width="19"/>
<path d="M82.0679 176.281C82.0366 175.844 82.3335 175.453 82.9585 175.109C83.5835 174.734 84.7866 174.547 86.5679 174.547C88.3491 174.547 89.9429 174.938 91.3491 175.719C95.6616 173.906 99.5366 170.656 102.974 165.969C106.38 161.312 108.021 157.062 107.896 153.219C107.802 150.719 106.818 148.578 104.943 146.797C97.2554 151.984 89.3179 160.531 81.1304 172.438C68.4429 190.188 57.396 200.844 47.9897 204.406C45.0835 205.531 42.5835 206.094 40.4897 206.094C38.3647 206.094 36.6772 205.938 35.4272 205.625C34.1772 205.281 33.1304 204.812 32.2866 204.219C30.6929 203.062 29.896 201.547 29.896 199.672C29.896 197.734 30.8491 196.5 32.7554 195.969C33.2866 195.844 33.8022 195.781 34.3022 195.781C34.8022 195.781 35.3179 195.953 35.8491 196.297C36.3491 196.641 36.5991 197.156 36.5991 197.844C36.5991 198.531 36.3491 199.109 35.8491 199.578C35.3179 200.047 34.6304 200.281 33.7866 200.281C32.9429 200.281 32.271 200.109 31.771 199.766V200.047C31.771 201.453 32.4272 202.594 33.7397 203.469C35.0522 204.344 36.646 204.781 38.521 204.781C40.3647 204.781 41.9116 204.641 43.1616 204.359C44.4116 204.078 45.7085 203.562 47.0522 202.812C48.396 202.031 49.8179 200.969 51.3179 199.625C52.8179 198.25 54.5054 196.484 56.3804 194.328C58.2554 192.172 60.3804 189.562 62.7554 186.5L70.8647 175.625C77.5522 166.25 85.1147 158.375 93.5522 152C98.0522 148.594 101.271 146.406 103.208 145.438C99.4272 142.906 93.8491 141.641 86.4741 141.641C79.5991 141.641 72.8804 143.156 66.3179 146.188C60.3491 148.969 55.5054 152.531 51.7866 156.875C48.0991 161.219 46.3179 165.344 46.4429 169.25C46.5054 171.531 47.3804 173.312 49.0679 174.594C50.3804 175.594 51.9585 176.094 53.8022 176.094C55.646 176.094 57.521 175.594 59.4272 174.594C61.3647 173.594 63.2241 172.297 65.0054 170.703C66.7866 169.078 68.4585 167.281 70.021 165.312C71.6147 163.312 73.021 161.328 74.2397 159.359C76.771 155.266 78.1772 152.016 78.4585 149.609C78.5522 148.547 78.7554 148.016 79.0679 148.016C79.3804 148.016 79.5522 148.141 79.5835 148.391C79.6147 148.609 79.646 149.312 79.6772 150.5C79.7085 151.688 79.4741 153.328 78.9741 155.422C78.4741 157.516 77.7085 159.594 76.6772 161.656C75.6772 163.719 74.4116 165.688 72.8804 167.562C71.3804 169.438 69.6616 171.094 67.7241 172.531C63.5054 175.719 58.8179 177.312 53.6616 177.312C51.5054 177.312 49.5366 176.594 47.7554 175.156C45.8804 173.625 44.896 171.656 44.8022 169.25C44.7397 166.812 45.2866 164.375 46.4429 161.938C47.5991 159.5 49.1929 157.203 51.2241 155.047C53.2866 152.891 55.7085 150.906 58.4897 149.094C61.271 147.281 64.2397 145.719 67.396 144.406C74.0522 141.688 80.8179 140.328 87.6929 140.328C94.5991 140.328 100.255 141.766 104.662 144.641C109.287 142.297 112.677 141.125 114.833 141.125C115.427 141.125 115.724 141.25 115.724 141.5C115.755 141.75 115.677 141.938 115.49 142.062C115.302 142.188 114.771 142.328 113.896 142.484C111.958 142.828 109.443 143.953 106.349 145.859C109.974 148.797 111.88 152.562 112.068 157.156C112.255 161.156 110.583 164.984 107.052 168.641C103.458 172.391 98.7241 175.125 92.8491 176.844C93.7554 177.781 94.2241 178.891 94.2554 180.172C94.3179 181.453 94.2554 182.609 94.0679 183.641C93.8804 184.672 93.4585 185.812 92.8022 187.062C91.521 189.5 88.8647 192.734 84.8335 196.766C82.9897 198.297 82.0991 199.828 82.1616 201.359C82.1616 203.641 83.8022 204.781 87.0835 204.781C90.896 204.781 94.8491 202.766 98.9429 198.734C103.099 194.578 106.193 189.5 108.224 183.5C108.505 182.562 108.724 182.094 108.88 182.094C109.443 182.094 109.724 182.781 109.724 184.156C109.724 185.5 109.365 187.078 108.646 188.891C107.958 190.703 107.021 192.453 105.833 194.141C104.646 195.828 103.271 197.406 101.708 198.875C100.146 200.312 98.5054 201.562 96.7866 202.625C93.1616 204.938 89.9585 206.094 87.1772 206.094C84.4272 206.094 82.3647 205.562 80.9897 204.5C79.6147 203.406 78.896 202.016 78.8335 200.328C78.771 198.609 78.9741 197.016 79.4429 195.547C79.9116 194.078 80.5366 192.719 81.3179 191.469C82.1304 190.188 83.0366 189 84.0366 187.906L86.9429 184.766C89.1616 182.953 90.4116 181.344 90.6929 179.938C90.7554 179.531 90.7866 179.109 90.7866 178.672C90.7866 178.234 90.6929 177.828 90.5054 177.453C89.0679 177.797 87.6616 177.969 86.2866 177.969C84.9116 177.969 83.8804 177.797 83.1929 177.453C82.5054 177.078 82.1304 176.688 82.0679 176.281ZM89.4272 176.375C88.5522 175.875 87.396 175.625 85.9585 175.625C84.521 175.625 83.8022 175.75 83.8022 176C83.8022 176.594 84.4429 176.891 85.7241 176.891C87.0054 176.891 88.2397 176.719 89.4272 176.375ZM118.255 210.969C117.943 210.906 117.599 210.875 117.224 210.875C116.537 210.875 115.787 210.906 114.974 210.969L164.662 141.219C165.099 141.406 165.615 141.5 166.208 141.5C166.458 141.5 166.771 141.484 167.146 141.453C167.552 141.422 167.833 141.406 167.99 141.406L118.255 210.969Z" fill="black"/>
<path d="M143.783 261.483C135.95 260.287 128.281 258.493 121.353 262.312C98.9382 274.668 87.8617 302.905 78.8698 322.067C67.2263 346.881 59.0066 373.964 65.639 400.554C70.7654 421.105 122.4 386.249 129.725 382.818C167.411 365.165 203.689 345.573 237.638 323.476C260.56 308.557 286.666 294.02 304.619 274.827C307.517 271.729 317.483 263.276 306.273 266.953C264.309 280.718 219.321 292.126 174.999 299.939C157.085 303.097 139.078 305.959 121.146 309.055C119.762 309.295 106.447 310.713 108.536 310.713C119.875 310.713 132.091 308.379 142.956 306.735C187.765 299.953 232.363 292.826 277.537 287.673C329.674 281.726 382.982 276.818 435.686 275.075C443.673 274.811 451.674 274.909 459.666 274.909C463.364 274.909 455.906 276.072 454.912 276.401C444.855 279.732 429.837 284.24 422.042 290.491C421.345 291.049 415.492 295.325 418.63 295.712C430.706 297.202 444.803 295.946 456.876 295.629C500.674 294.478 543.936 292.811 587.839 292.811C627.945 292.811 668.05 292.811 708.156 292.811C721.556 292.811 720.903 292.903 709.396 289.828" stroke="black" stroke-width="3" stroke-linecap="round"/>
<path d="M157.123 495.745C134.102 489.908 88.1838 484.965 79.0955 502.754C76.8857 507.079 70.496 514.052 77.7071 517.915C99.1812 529.419 119.892 530.275 150.459 531.789C174.311 532.97 198.031 533.076 221.961 533.076C229.552 533.076 251.623 531.652 244.73 533.291C212.638 540.92 178.347 547.78 147.265 556.318C139.09 558.564 131.819 561.155 129.772 565.901C126.555 573.357 175.853 576.158 181.836 576.557C256.194 581.518 332.264 580.705 407.033 580.705C447.55 580.705 488.457 581.531 528.933 580.419C548.082 579.893 568.652 577.987 585.302 572.695C597.197 568.915 582.143 562.31 575.028 560.538C549.317 554.134 521.551 551.767 493.668 549.238C437.476 544.142 381.105 540.472 324.007 539.655C293.768 539.223 263.456 539.512 233.207 539.512C222.653 539.512 208.667 540.522 198.636 538.225C196.034 537.63 229.395 527.361 230.569 526.997C262.142 517.209 294.413 508.648 329.7 502.968C372.954 496.006 417.408 489.882 461.458 484.446C510.387 478.408 559.919 477.249 609.599 473.862C639.166 471.846 667.105 470 696.928 470" stroke="black" stroke-width="3" stroke-linecap="round"/>
<path d="M164.175 668C145.664 682.269 127.103 697.286 110.443 713.61C104.255 719.672 92.5317 727.961 92.5317 737.894C92.5317 746.238 101.015 747.264 108.452 747.756C135.931 749.571 163.998 747.879 191.539 747.879C200.37 747.879 209.201 747.879 218.032 747.879C218.607 747.879 212.758 748.017 211.191 748.372C205.099 749.752 199.791 752.676 194.399 755.645C183.292 761.761 205.643 763.377 209.201 763.411C251.854 763.821 294.533 763.411 337.188 763.411C369.812 763.411 402.148 762.852 434.703 761.315C440.62 761.036 446.566 761.192 452.489 761.192C466.42 761.192 424.628 761.192 410.697 761.192C392.704 761.192 374.71 761.192 356.716 761.192C345.623 761.192 357.361 755.814 362.935 753.303C405.254 734.239 445.703 728.416 491.918 723.595C549.935 717.542 607.694 716.815 665.926 716.815C671.75 716.815 686.624 716.023 673.514 718.911C664.519 720.891 655.551 715.683 647.767 712.377" stroke="black" stroke-width="3" stroke-linecap="round"/>
<path d="M37.0361 51C51.9554 69.0719 84.7586 62.0943 106.441 62.0943C118.175 62.0943 130.034 61.6293 141.765 62.0943C143.049 62.1452 145.671 71.9301 148.979 62.0943" stroke="black" stroke-width="3" stroke-linecap="round"/>
<path d="M594.009 65.6464C609.765 65.6464 625.375 68.4156 640.87 58.4548C648.45 53.5817 652.061 49.8763 659.39 56.8567C670.129 67.0844 685.526 58.4548 696.928 58.4548" stroke="black" stroke-width="3" stroke-linecap="round"/>
</svg>
