<svg width="896" height="941" viewBox="0 0 896 941" fill="none" xmlns="http://www.w3.org/2000/svg">
<path d="M161.068 210.281C161.037 209.844 161.333 209.453 161.958 209.109C162.583 208.734 163.787 208.547 165.568 208.547C167.349 208.547 168.943 208.938 170.349 209.719C174.662 207.906 178.537 204.656 181.974 199.969C185.38 195.312 187.021 191.062 186.896 187.219C186.802 184.719 185.818 182.578 183.943 180.797C176.255 185.984 168.318 194.531 160.13 206.438C147.443 224.188 136.396 234.844 126.99 238.406C124.083 239.531 121.583 240.094 119.49 240.094C117.365 240.094 115.677 239.938 114.427 239.625C113.177 239.281 112.13 238.812 111.287 238.219C109.693 237.062 108.896 235.547 108.896 233.672C108.896 231.734 109.849 230.5 111.755 229.969C112.287 229.844 112.802 229.781 113.302 229.781C113.802 229.781 114.318 229.953 114.849 230.297C115.349 230.641 115.599 231.156 115.599 231.844C115.599 232.531 115.349 233.109 114.849 233.578C114.318 234.047 113.63 234.281 112.787 234.281C111.943 234.281 111.271 234.109 110.771 233.766V234.047C110.771 235.453 111.427 236.594 112.74 237.469C114.052 238.344 115.646 238.781 117.521 238.781C119.365 238.781 120.912 238.641 122.162 238.359C123.412 238.078 124.708 237.562 126.052 236.812C127.396 236.031 128.818 234.969 130.318 233.625C131.818 232.25 133.505 230.484 135.38 228.328C137.255 226.172 139.38 223.562 141.755 220.5L149.865 209.625C156.552 200.25 164.115 192.375 172.552 186C177.052 182.594 180.271 180.406 182.208 179.438C178.427 176.906 172.849 175.641 165.474 175.641C158.599 175.641 151.88 177.156 145.318 180.188C139.349 182.969 134.505 186.531 130.787 190.875C127.099 195.219 125.318 199.344 125.443 203.25C125.505 205.531 126.38 207.312 128.068 208.594C129.38 209.594 130.958 210.094 132.802 210.094C134.646 210.094 136.521 209.594 138.427 208.594C140.365 207.594 142.224 206.297 144.005 204.703C145.787 203.078 147.458 201.281 149.021 199.312C150.615 197.312 152.021 195.328 153.24 193.359C155.771 189.266 157.177 186.016 157.458 183.609C157.552 182.547 157.755 182.016 158.068 182.016C158.38 182.016 158.552 182.141 158.583 182.391C158.615 182.609 158.646 183.312 158.677 184.5C158.708 185.688 158.474 187.328 157.974 189.422C157.474 191.516 156.708 193.594 155.677 195.656C154.677 197.719 153.412 199.688 151.88 201.562C150.38 203.438 148.662 205.094 146.724 206.531C142.505 209.719 137.818 211.312 132.662 211.312C130.505 211.312 128.537 210.594 126.755 209.156C124.88 207.625 123.896 205.656 123.802 203.25C123.74 200.812 124.287 198.375 125.443 195.938C126.599 193.5 128.193 191.203 130.224 189.047C132.287 186.891 134.708 184.906 137.49 183.094C140.271 181.281 143.24 179.719 146.396 178.406C153.052 175.688 159.818 174.328 166.693 174.328C173.599 174.328 179.255 175.766 183.662 178.641C188.287 176.297 191.677 175.125 193.833 175.125C194.427 175.125 194.724 175.25 194.724 175.5C194.755 175.75 194.677 175.938 194.49 176.062C194.302 176.188 193.771 176.328 192.896 176.484C190.958 176.828 188.443 177.953 185.349 179.859C188.974 182.797 190.88 186.562 191.068 191.156C191.255 195.156 189.583 198.984 186.052 202.641C182.458 206.391 177.724 209.125 171.849 210.844C172.755 211.781 173.224 212.891 173.255 214.172C173.318 215.453 173.255 216.609 173.068 217.641C172.88 218.672 172.458 219.812 171.802 221.062C170.521 223.5 167.865 226.734 163.833 230.766C161.99 232.297 161.099 233.828 161.162 235.359C161.162 237.641 162.802 238.781 166.083 238.781C169.896 238.781 173.849 236.766 177.943 232.734C182.099 228.578 185.193 223.5 187.224 217.5C187.505 216.562 187.724 216.094 187.88 216.094C188.443 216.094 188.724 216.781 188.724 218.156C188.724 219.5 188.365 221.078 187.646 222.891C186.958 224.703 186.021 226.453 184.833 228.141C183.646 229.828 182.271 231.406 180.708 232.875C179.146 234.312 177.505 235.562 175.787 236.625C172.162 238.938 168.958 240.094 166.177 240.094C163.427 240.094 161.365 239.562 159.99 238.5C158.615 237.406 157.896 236.016 157.833 234.328C157.771 232.609 157.974 231.016 158.443 229.547C158.912 228.078 159.537 226.719 160.318 225.469C161.13 224.188 162.037 223 163.037 221.906L165.943 218.766C168.162 216.953 169.412 215.344 169.693 213.938C169.755 213.531 169.787 213.109 169.787 212.672C169.787 212.234 169.693 211.828 169.505 211.453C168.068 211.797 166.662 211.969 165.287 211.969C163.912 211.969 162.88 211.797 162.193 211.453C161.505 211.078 161.13 210.688 161.068 210.281ZM168.427 210.375C167.552 209.875 166.396 209.625 164.958 209.625C163.521 209.625 162.802 209.75 162.802 210C162.802 210.594 163.443 210.891 164.724 210.891C166.005 210.891 167.24 210.719 168.427 210.375ZM197.255 244.969C196.943 244.906 196.599 244.875 196.224 244.875C195.537 244.875 194.787 244.906 193.974 244.969L243.662 175.219C244.099 175.406 244.615 175.5 245.208 175.5C245.458 175.5 245.771 175.484 246.146 175.453C246.552 175.422 246.833 175.406 246.99 175.406L197.255 244.969Z" fill="black"/>
<rect x="9.5" y="9.5" width="877" height="922" rx="40.5" stroke="#D8C800" stroke-width="19"/>
<path d="M222.783 295.483C214.95 294.287 207.281 292.493 200.353 296.312C177.938 308.668 166.862 336.905 157.87 356.067C146.226 380.881 138.007 407.964 144.639 434.554C149.765 455.105 201.4 420.249 208.725 416.818C246.411 399.165 282.689 379.573 316.638 357.476C339.56 342.557 365.666 328.02 383.619 308.827C386.517 305.729 396.483 297.276 385.273 300.953C343.309 314.718 298.321 326.126 253.999 333.939C236.085 337.097 218.078 339.959 200.146 343.055C198.762 343.295 185.447 344.713 187.536 344.713C198.875 344.713 211.091 342.379 221.956 340.735C266.765 333.953 311.363 326.826 356.537 321.673C408.674 315.726 461.982 310.818 514.686 309.075C522.673 308.811 530.674 308.909 538.666 308.909C542.364 308.909 534.906 310.072 533.912 310.401C523.855 313.732 508.837 318.24 501.042 324.491C500.345 325.049 494.492 329.325 497.63 329.712C509.706 331.202 523.803 329.946 535.876 329.629C579.674 328.478 622.936 326.811 666.839 326.811C706.945 326.811 747.05 326.811 787.156 326.811C800.556 326.811 799.903 326.903 788.396 323.828" stroke="#D8C800" stroke-width="3" stroke-linecap="round"/>
<path d="M236.122 529.745C213.102 523.908 167.183 518.965 158.095 536.754C155.885 541.079 149.495 548.052 156.707 551.915C178.181 563.419 198.891 564.275 229.458 565.789C253.31 566.97 277.031 567.076 300.96 567.076C308.551 567.076 330.622 565.652 323.73 567.291C291.638 574.92 257.346 581.78 226.265 590.318C218.09 592.564 210.819 595.155 208.771 599.901C205.555 607.357 254.853 610.158 260.836 610.557C335.194 615.518 411.264 614.705 486.032 614.705C526.55 614.705 567.457 615.531 607.933 614.419C627.081 613.893 647.652 611.987 664.301 606.695C676.197 602.915 661.143 596.31 654.027 594.538C628.317 588.134 600.55 585.767 572.668 583.238C516.475 578.142 460.104 574.472 403.007 573.655C372.767 573.223 342.455 573.512 312.206 573.512C301.652 573.512 287.666 574.522 277.635 572.225C275.033 571.63 308.395 561.361 309.568 560.997C341.142 551.209 373.412 542.648 408.699 536.968C451.954 530.006 496.407 523.882 540.457 518.446C589.386 512.408 638.919 511.249 688.598 507.862C718.165 505.846 746.105 504 775.928 504" stroke="#D8C800" stroke-width="3" stroke-linecap="round"/>
<path d="M243.175 702C224.664 716.269 206.103 731.286 189.443 747.61C183.255 753.672 171.532 761.961 171.532 771.894C171.532 780.238 180.015 781.264 187.452 781.756C214.931 783.571 242.998 781.879 270.539 781.879C279.37 781.879 288.201 781.879 297.032 781.879C297.607 781.879 291.758 782.017 290.191 782.372C284.099 783.752 278.791 786.676 273.399 789.645C262.292 795.761 284.643 797.377 288.201 797.411C330.854 797.821 373.533 797.411 416.188 797.411C448.812 797.411 481.148 796.852 513.703 795.315C519.62 795.036 525.566 795.192 531.489 795.192C545.42 795.192 503.628 795.192 489.697 795.192C471.704 795.192 453.71 795.192 435.716 795.192C424.623 795.192 436.361 789.814 441.935 787.303C484.254 768.239 524.703 762.416 570.918 757.595C628.935 751.542 686.694 750.815 744.926 750.815C750.75 750.815 765.624 750.023 752.514 752.911C743.519 754.891 734.551 749.683 726.767 746.377" stroke="#D8C800" stroke-width="3" stroke-linecap="round"/>
<path d="M116.036 85C130.955 103.072 163.759 96.0943 185.441 96.0943C197.175 96.0943 209.034 95.6293 220.765 96.0943C222.049 96.1452 224.671 105.93 227.979 96.0943" stroke="#D8C800" stroke-width="3" stroke-linecap="round"/>
<path d="M673.009 99.6464C688.765 99.6464 704.375 102.416 719.869 92.4548C727.45 87.5817 731.06 83.8763 738.39 90.8567C749.129 101.084 764.525 92.4548 775.928 92.4548" stroke="#D8C800" stroke-width="3" stroke-linecap="round"/>
</svg>
