<svg width="686" height="689" viewBox="0 0 686 689" fill="none" xmlns="http://www.w3.org/2000/svg">
<g filter="url(#filter0_d)">
<path d="M272.818 563.152C272.334 562.918 271.864 562.758 271.571 562.663C270.737 562.39 269.637 562.108 268.491 561.835C266.488 561.358 263.883 560.803 261.275 560.247C260.838 560.154 260.402 560.061 259.968 559.969C258.415 559.636 256.895 559.309 255.499 558.995C253.245 558.329 251.007 557.619 248.803 556.871C242.991 554.777 239.804 553.413 234.144 550.596C228.793 547.932 225.925 546.406 221.006 543.169C215.025 539.232 211.875 536.807 206.651 531.973C203.554 529.108 201.762 527.089 199.343 524.365C198.508 523.424 197.598 522.399 196.533 521.226C195.397 519.973 194.42 518.93 193.535 517.985C191.309 515.609 189.653 513.84 187.45 510.864C184.088 506.323 180.463 501.026 178.023 496.55C176.787 494.283 175.982 492.455 175.613 491.162C175.561 490.981 175.522 490.824 175.492 490.689C185.202 477.838 296.425 329.394 326.145 289.725C328.468 286.624 332.878 286.03 336.004 288.468L465.146 389.199C468.216 391.593 468.753 395.947 466.401 398.97C442.776 429.343 370.091 522.757 364.634 529.416C364.636 529.414 364.633 529.416 364.626 529.424C364.585 529.467 364.379 529.683 363.903 530.117C363.408 530.569 362.762 531.13 362 531.773C360.478 533.055 358.6 534.574 356.752 536.043C354.91 537.507 353.123 538.902 351.796 539.932C351.132 540.447 350.585 540.869 350.204 541.163C350.107 541.237 350.021 541.304 349.947 541.361L338.597 547.323C338.434 547.409 338.266 547.489 338.082 547.57C336.359 548.322 329.672 551.279 324.034 554.344C323.391 554.694 322.76 555.035 322.152 555.362C321.135 555.909 318.983 556.647 316.359 557.287C313.788 557.913 311.377 558.297 310.03 558.354C309.204 558.389 308.418 558.522 307.68 558.725C305.827 559.232 299.489 560.858 292.063 561.577C290.162 561.761 288.259 562.033 286.453 562.297C286.257 562.326 286.062 562.354 285.868 562.383C284.242 562.622 282.694 562.849 281.148 563.027C278.091 563.38 275.349 563.5 272.818 563.152ZM249.692 557.494C249.657 557.479 249.642 557.472 249.645 557.473C249.647 557.473 249.664 557.48 249.692 557.494Z" fill="white" stroke="white" stroke-width="10"/>
<path d="M562.823 266.789L362.937 523.052C325.403 571.172 255.967 579.754 207.847 542.22C159.727 504.686 151.145 435.25 188.679 387.129L388.564 130.867C426.098 82.7463 495.535 74.1644 543.655 111.698C591.775 149.232 600.357 218.669 562.823 266.789Z" stroke="white" stroke-width="21"/>
</g>
<g filter="url(#filter1_d)">
<path d="M247.684 571.596C248.217 571.524 248.713 571.518 249.022 571.519C249.898 571.519 251.032 571.594 252.206 571.691C254.258 571.861 256.906 572.145 259.558 572.428C260.001 572.476 260.445 572.523 260.886 572.57C262.466 572.738 264.012 572.9 265.436 573.037C267.785 573.105 270.133 573.127 272.46 573.102C278.636 572.922 282.089 572.618 288.345 571.703C294.259 570.837 297.46 570.279 303.142 568.734C310.051 566.855 313.8 565.531 320.269 562.564C324.105 560.805 326.436 559.445 329.582 557.609C330.669 556.975 331.853 556.284 333.23 555.5C334.7 554.663 335.952 553.977 337.088 553.354C339.943 551.788 342.067 550.624 345.087 548.482C349.696 545.212 354.789 541.307 358.502 537.813C360.382 536.044 361.716 534.557 362.47 533.443C362.575 533.287 362.662 533.15 362.732 533.031C357.505 517.796 298.021 342.103 282.126 295.154C280.884 291.484 276.878 289.546 273.149 290.89L119.065 346.413C115.403 347.733 113.537 351.702 114.831 355.308C127.827 391.526 167.82 502.926 170.933 510.953C170.932 510.95 170.933 510.953 170.937 510.962C170.963 511.017 171.092 511.286 171.408 511.846C171.739 512.431 172.178 513.165 172.702 514.013C173.749 515.705 175.061 517.733 176.36 519.704C177.654 521.669 178.918 523.55 179.859 524.943C180.329 525.638 180.718 526.21 180.988 526.608C181.057 526.709 181.118 526.798 181.171 526.876L190.101 536.075C190.229 536.207 190.364 536.336 190.514 536.47C191.917 537.721 197.351 542.613 201.754 547.281C202.257 547.814 202.75 548.334 203.226 548.834C204.022 549.67 205.837 551.042 208.133 552.467C210.38 553.862 212.552 554.977 213.814 555.451C214.589 555.742 215.294 556.113 215.932 556.535C217.535 557.594 223.052 561.112 229.886 564.108C231.634 564.874 233.358 565.724 234.993 566.538C235.17 566.626 235.346 566.714 235.522 566.802C236.993 567.535 238.393 568.233 239.806 568.883C242.601 570.171 245.17 571.138 247.684 571.596ZM271.422 573.417C271.46 573.415 271.476 573.413 271.474 573.412C271.471 573.412 271.453 573.413 271.422 573.417Z" fill="#FF0000" stroke="#FF0000" stroke-width="10"/>
<path d="M60.8981 192.315L171.075 498.07C191.764 555.483 255.078 585.255 312.492 564.566C369.905 543.877 399.677 480.563 378.988 423.149L268.811 117.394C248.123 59.9808 184.808 30.2093 127.395 50.8979C69.9809 71.5866 40.2094 134.901 60.8981 192.315Z" stroke="#FF0000" stroke-width="21"/>
</g>
<defs>
<filter id="filter0_d" x="95.9805" y="29" width="589.541" height="659.918" filterUnits="userSpaceOnUse" color-interpolation-filters="sRGB">
<feFlood flood-opacity="0" result="BackgroundImageFix"/>
<feColorMatrix in="SourceAlpha" type="matrix" values="0 0 0 0 0 0 0 0 0 0 0 0 0 0 0 0 0 0 127 0" result="hardAlpha"/>
<feOffset dx="15" dy="39"/>
<feGaussianBlur stdDeviation="12.5"/>
<feComposite in2="hardAlpha" operator="out"/>
<feColorMatrix type="matrix" values="0 0 0 0 0 0 0 0 0 0 0 0 0 0 0 0 0 0 0.25 0"/>
<feBlend mode="normal" in2="BackgroundImageFix" result="effect1_dropShadow"/>
<feBlend mode="normal" in="SourceGraphic" in2="effect1_dropShadow" result="shape"/>
</filter>
<filter id="filter1_d" x="0" y="0" width="469.886" height="679.464" filterUnits="userSpaceOnUse" color-interpolation-filters="sRGB">
<feFlood flood-opacity="0" result="BackgroundImageFix"/>
<feColorMatrix in="SourceAlpha" type="matrix" values="0 0 0 0 0 0 0 0 0 0 0 0 0 0 0 0 0 0 127 0" result="hardAlpha"/>
<feOffset dx="15" dy="39"/>
<feGaussianBlur stdDeviation="12.5"/>
<feComposite in2="hardAlpha" operator="out"/>
<feColorMatrix type="matrix" values="0 0 0 0 0 0 0 0 0 0 0 0 0 0 0 0 0 0 0.25 0"/>
<feBlend mode="normal" in2="BackgroundImageFix" result="effect1_dropShadow"/>
<feBlend mode="normal" in="SourceGraphic" in2="effect1_dropShadow" result="shape"/>
</filter>
</defs>
</svg>
